<svg class="svg-icon" style="width: 26px; height: 26px;vertical-align: middle;fill: currentColor;overflow: hidden;" viewBox="0 0 1024 1024" version="1.1" xmlns="http://www.w3.org/2000/svg"><path d="M513 465.3c-64.9 0-117.7-52.8-117.7-117.7S448.1 229.9 513 229.9s117.7 52.8 117.7 117.7S577.9 465.3 513 465.3z m0-171.3c-29.6 0-53.7 24.1-53.7 53.7s24.1 53.7 53.7 53.7 53.7-24.2 53.7-53.7c0-29.6-24.1-53.7-53.7-53.7z"  /><path d="M511.7 866.6l-27.2-33.1c-2.3-2.8-57.1-69.7-116-156.2-80.7-118.6-127.4-212.7-138.7-280-7.2-42.8-5.1-85.3 6.4-126.1 11-39 29.9-74.6 56.3-105.7C346.9 101 426.7 63.9 511.3 63.9c44 0 86.3 9.7 125.9 28.9 37.8 18.3 71.7 45.1 98 77.5 25.4 31.2 43.3 66.3 53.1 104.5 10.5 40.4 11.4 81.9 2.7 123.6-13.8 66.7-60.8 160.4-139.8 278.5-57.8 86.5-110.8 153.2-113.1 156l-26.4 33.7z m-0.5-733.3c-64.2 0-124.6 28-166 76.9-19.9 23.5-34.2 50.3-42.4 79.7-8.8 30.8-10.3 63.1-4.8 95.6 6.7 39.4 34.3 115.2 127.8 252.6 32.2 47.4 63.7 89.3 85 116.9 20.9-27.7 51.6-69.7 83.2-117.1 72.7-108.8 117.4-196.6 129.3-253.6 12.7-61.1-2.2-121.6-41.8-170.3-20-24.6-45.8-44.9-74.6-58.9-30-14.4-62.2-21.8-95.7-21.8zM896.5 930.6h-767c-17.7 0-32-14.3-32-32s14.3-32 32-32h767c17.7 0 32 14.3 32 32s-14.3 32-32 32z"  /></svg>