<svg width="18" height="25" viewBox="0 0 18 25" fill="none" xmlns="http://www.w3.org/2000/svg">
<path fill-rule="evenodd" clip-rule="evenodd" d="M8.99971 11.4C7.67636 11.4 6.59998 10.3234 6.59998 9C6.59998 7.67664 7.67636 6.6 8.99971 6.6C10.3231 6.6 11.4 7.67664 11.4 9C11.4 10.3234 10.3231 11.4 8.99971 11.4ZM8.99975 5C6.79436 5 5 6.79435 5 9C5 11.2057 6.79436 13 8.99975 13C11.2054 13 13 11.2057 13 9C13 6.79435 11.2054 5 8.99975 5ZM9.02071 22.8C9.02071 22.8 7.0195 20.9908 5.79933 19.2402C3.21557 15.5333 1.84998 12.2099 1.84998 9.62942C1.84998 2.36468 7.33845 1.8 9.02071 1.8C15.6743 1.8 16.1914 7.79263 16.1914 9.62942C16.1914 14.7385 9.02071 22.8 9.02071 22.8ZM15.0677 2.15707C13.5068 0.766304 11.3402 0 8.96739 0C6.59456 0 4.42799 0.766304 2.86712 2.15707C0.991304 3.8288 0 6.36984 0 9.50598C0 16.337 7.86114 24.3413 8.19565 24.6785C8.39973 24.8845 8.67772 25 8.96739 25C9.25706 25 9.53505 24.8845 9.73913 24.6785C10.0736 24.3413 17.9348 16.337 17.9348 9.50598C17.9348 6.36984 16.9435 3.8288 15.0677 2.15707Z"/>
</svg>
