<svg width="20" height="22" viewBox="0 0 20 22" fill="none" xmlns="http://www.w3.org/2000/svg">
<path fill-rule="evenodd" clip-rule="evenodd" d="M5.77119 13.8095H14.2286C14.7545 13.8095 15.181 13.3831 15.181 12.8571C15.181 12.3312 14.7545 11.9048 14.2286 11.9048H5.77119C5.24524 11.9048 4.81881 12.3312 4.81881 12.8571C4.81881 13.3831 5.24524 13.8095 5.77119 13.8095ZM9.21497 3.57143H10.7847C11.3107 3.57143 11.7371 3.145 11.7371 2.61905C11.7371 2.0931 11.3107 1.66667 10.7847 1.66667H9.21497C8.68902 1.66667 8.26259 2.0931 8.26259 2.61905C8.26259 3.145 8.68902 3.57143 9.21497 3.57143ZM19.0476 1.66667H17.0598C16.5338 1.66667 16.1074 2.0931 16.1074 2.61905C16.1074 3.145 16.5338 3.57143 17.0598 3.57143H18.0952V19.7619H1.90476V3.57143H2.94C3.46595 3.57143 3.89238 3.145 3.89238 2.61905C3.89238 2.0931 3.46595 1.66667 2.94 1.66667H0.952381C0.426429 1.66667 0 2.17929 0 2.70524V20.7143C0 21.2402 0.426429 21.6667 0.952381 21.6667H19.0476C19.5736 21.6667 20 21.2402 20 20.7143V2.70524C20 2.17929 19.5736 1.66667 19.0476 1.66667ZM5.77119 9.52381H14.2286C14.7545 9.52381 15.181 9.09738 15.181 8.57143C15.181 8.04548 14.7545 7.61905 14.2286 7.61905H5.77119C5.24524 7.61905 4.81881 8.04548 4.81881 8.57143C4.81881 9.09738 5.24524 9.52381 5.77119 9.52381ZM13.8095 5.42619C14.4669 5.42619 15 4.8931 15 4.23571V1.19048C15 0.533095 14.4669 0 13.8095 0C13.1521 0 12.619 0.533095 12.619 1.19048V4.23571C12.619 4.8931 13.1521 5.42619 13.8095 5.42619ZM5 4.23571V1.19048C5 0.533095 5.5331 0 6.19048 0C6.84786 0 7.38095 0.533095 7.38095 1.19048V4.23571C7.38095 4.8931 6.84786 5.42619 6.19048 5.42619C5.5331 5.42619 5 4.8931 5 4.23571Z" />
</svg>
