<svg width="20" height="17" viewBox="0 0 20 17" fill="none" xmlns="http://www.w3.org/2000/svg">
<path fill-rule="evenodd" clip-rule="evenodd" d="M20 9.26044C20 9.46392 19.9181 9.65892 19.7726 9.80174L13.7072 15.7587C13.5581 15.9052 13.364 15.9782 13.1696 15.9782C12.9724 15.9782 12.7751 15.9028 12.6253 15.7519C12.3285 15.453 12.3316 14.9713 12.632 14.6761L18.1461 9.26044L10.5718 1.82156C10.2714 1.52635 10.2681 1.04461 10.5651 0.745483C10.862 0.446571 11.3464 0.443528 11.647 0.738744L19.7726 8.71914C19.9181 8.86196 20 9.05696 20 9.26044ZM5.64813 3.737C5.89074 3.97831 6.03074 4.31526 6.03074 4.65874C6.03074 5.00221 5.89074 5.33917 5.64813 5.58047C5.40335 5.82395 5.06466 5.96308 4.71923 5.96308C4.37379 5.96308 4.03727 5.82395 3.79249 5.58047C3.54988 5.33917 3.40988 5.00221 3.40988 4.65874C3.40988 4.31526 3.54988 3.97831 3.79249 3.737C4.03727 3.49353 4.37379 3.3544 4.71923 3.3544C5.06466 3.3544 5.40335 3.49353 5.64813 3.737ZM9.41788 13.9952L2.14335 6.85067L1.81183 1.80026L6.97615 2.12722L14.2389 9.26044L9.41788 13.9952ZM16.3576 9.26045C16.3576 9.02806 16.2639 8.80502 16.0976 8.64176L7.97224 0.661361C7.82224 0.514188 7.62398 0.42571 7.41354 0.412449L0.930097 0.001799C0.679446 -0.0142879 0.43336 0.078103 0.255753 0.255276C0.0781447 0.432232 -0.0144635 0.676796 0.00184072 0.92636L0.420099 7.29372C0.434012 7.50611 0.525969 7.70633 0.678359 7.85589L8.80375 15.8361C8.97397 16.0032 9.19592 16.0869 9.41788 16.0869C9.64005 16.0869 9.86201 16.0032 10.0322 15.8361L16.0976 9.87914C16.2639 9.71588 16.3576 9.49306 16.3576 9.26045Z"/>
</svg>
