<svg width="40" height="40" viewBox="0 0 40 40" fill="none" xmlns="http://www.w3.org/2000/svg">
<circle cx="20" cy="20" r="19" stroke="#22232B" stroke-width="2"/>
<path fill-rule="evenodd" clip-rule="evenodd" d="M26.65 32C26.14 27.653 24.33 24 19.82 24C15.31 24 13.5 27.653 12.99 32H11C11.65 26.575 14.21 22 19.82 22C25.43 22 27.99 26.575 28.64 32H26.65ZM19.82 20C16.5063 20 13.82 17.3137 13.82 14C13.82 10.6863 16.5063 8 19.82 8C23.1337 8 25.82 10.6863 25.82 14C25.82 17.3137 23.1337 20 19.82 20ZM19.82 10C17.6109 10 15.82 11.7909 15.82 14C15.82 16.2091 17.6109 18 19.82 18C22.0291 18 23.82 16.2091 23.82 14C23.82 11.7909 22.0291 10 19.82 10Z" fill="#22232B"/>
</svg>
