<svg width="20" height="18" viewBox="0 0 20 18"  xmlns="http://www.w3.org/2000/svg">
<path d="M19.7519 6.85635L17.7575 5.42614L10.3464 0.111351C10.1394 -0.037117 9.86073 -0.037117 9.65367 0.111351L0.248148 6.85635C-0.0187284 7.04769 -0.0799162 7.41909 0.111429 7.68597C0.302774 7.95269 0.674021 8.01388 0.940897 7.82269L1.99467 7.06692V17.194C1.99467 17.5224 2.26078 17.7885 2.58915 17.7885C3.25123 17.7885 16.7362 17.7885 17.4109 17.7885C17.7393 17.7885 18.0054 17.5224 18.0054 17.194V7.06692L19.0592 7.82269C19.3248 8.01311 19.6964 7.95391 19.8887 7.68597C20.08 7.41909 20.0188 7.04769 19.7519 6.85635ZM5.50862 16.5995V10.9126H14.4915V16.5995H5.50862ZM14.4915 9.72363H5.50862V8.71304H14.4915V9.72363ZM16.8164 6.21441V16.5995H15.6804C15.6804 16.2819 15.6804 11.6871 15.6804 8.11855C15.6804 7.79034 15.4142 7.52422 15.0859 7.52422H4.91413C4.58576 7.52422 4.31965 7.79034 4.31965 8.11855C4.31965 9.07818 4.31965 15.7264 4.31965 16.5995H3.18363V6.21441L10 1.32595L16.8164 6.21441Z" />
<path d="M9.44116 4.13428H10.5596C10.8878 4.13428 11.1541 3.86816 11.1541 3.53979C11.1541 3.21158 10.8878 2.94531 10.5596 2.94531H9.44116C9.11279 2.94531 8.84668 3.21158 8.84668 3.53979C8.84668 3.86816 9.11279 4.13428 9.44116 4.13428Z" />
<path d="M8.98706 5.64194H11.0125C11.3409 5.64194 11.607 5.37582 11.607 5.04761C11.607 4.71924 11.3409 4.45312 11.0125 4.45312H8.98706C8.65869 4.45312 8.39258 4.71924 8.39258 5.04761C8.39258 5.37582 8.65869 5.64194 8.98706 5.64194Z" />
<path d="M11.8579 11.9629H8.14267C7.16748 11.9629 6.37402 12.7562 6.37402 13.7314C6.37402 14.7066 7.16748 15.5 8.14267 15.5H11.8579C12.8331 15.5 13.6265 14.7066 13.6265 13.7314C13.6265 12.7562 12.8331 11.9629 11.8579 11.9629ZM11.8579 14.3111H8.14267C7.823 14.3111 7.56299 14.0511 7.56299 13.7314C7.56299 13.4119 7.823 13.1517 8.14267 13.1517H11.8579C12.1776 13.1517 12.4376 13.4119 12.4376 13.7314C12.4376 14.0511 12.1776 14.3111 11.8579 14.3111Z"/>
</svg>
