<svg width="20" height="18" viewBox="0 0 20 18" fill="none" xmlns="http://www.w3.org/2000/svg">
<path fill-rule="evenodd" clip-rule="evenodd" d="M1.73913 15.6522V11.087H7.82609V11.302C7.82609 11.6622 8.17478 11.9565 8.53478 11.9565H11.4652C11.8252 11.9565 12.1739 11.6622 12.1739 11.302V11.087H18.2578L18.2557 15.6522H1.73913ZM9.13043 10.6522H10.8696V10.2174H9.13043V10.6522ZM18.2604 5.21739L18.2583 9.78261H12.1739V9.46717C12.1739 9.10717 11.8252 8.91304 11.4652 8.91304H8.53478C8.17478 8.91304 7.82609 9.10717 7.82609 9.46717V9.78261H1.73913V5.21739H18.2604ZM7.17391 3.47826H12.8261V1.73913H7.17391V3.47826ZM19.7454 3.68304C19.5824 3.51978 19.3611 3.47826 19.1304 3.47826H14.5652V0.869565C14.5652 0.389348 14.1335 0 13.6533 0H6.34674C5.86652 0 5.43478 0.389348 5.43478 0.869565V3.47826H0.869565C0.389348 3.47826 0 3.76739 0 4.24761V16.5217C0 17.002 0.389348 17.3913 0.869565 17.3913H19.1248C19.6048 17.3913 19.9941 17.0022 19.9943 16.5222L20 4.27304C20 4.04239 19.9085 3.84609 19.7454 3.68304Z"/>
</svg>
