<svg class="svg-icon" style="width: 30px; height: 30px;vertical-align: middle;fill: currentColor;overflow: hidden;" viewBox="0 0 1024 1024" version="1.1" xmlns="http://www.w3.org/2000/svg"><path d="M512 404.945455c-58.181818 0-107.054545 46.545455-107.054545 107.054545s46.545455 107.054545 107.054545 107.054545 107.054545-46.545455 107.054545-107.054545-48.872727-107.054545-107.054545-107.054545z m0 179.2c-39.563636 0-72.145455-32.581818-72.145455-72.145455s32.581818-72.145455 72.145455-72.145455 72.145455 32.581818 72.145455 72.145455-32.581818 72.145455-72.145455 72.145455z" fill="" /><path d="M777.309091 442.181818H721.454545c-9.309091-27.927273-23.272727-53.527273-44.218181-74.472727l27.927272-48.872727c9.309091-16.290909 4.654545-37.236364-13.963636-48.872728l-60.509091-34.909091c-6.981818-4.654545-18.618182-6.981818-25.6-4.654545-9.309091 2.327273-16.290909 9.309091-20.945454 16.290909l-27.927273 48.872727c-30.254545-6.981818-58.181818-6.981818-86.109091 0L442.181818 246.690909c-4.654545-6.981818-11.636364-13.963636-20.945454-16.290909-9.309091-2.327273-18.618182-2.327273-25.6 4.654545l-60.509091 34.909091c-16.290909 9.309091-23.272727 30.254545-13.963637 48.872728l27.927273 48.872727c-18.618182 20.945455-34.909091 46.545455-44.218182 74.472727h-55.854545c-18.618182 0-34.909091 16.290909-34.909091 34.909091v69.818182c0 18.618182 16.290909 34.909091 34.909091 34.909091H302.545455c9.309091 27.927273 23.272727 53.527273 44.218181 74.472727l-27.927272 48.872727c-9.309091 16.290909-4.654545 37.236364 13.963636 48.872728l60.509091 34.909091c6.981818 4.654545 18.618182 6.981818 25.6 4.654545 9.309091-2.327273 16.290909-9.309091 20.945454-16.290909l27.927273-48.872727c30.254545 6.981818 58.181818 6.981818 86.109091 0l27.927273 48.872727c4.654545 6.981818 11.636364 13.963636 20.945454 16.290909 2.327273 0 6.981818 2.327273 9.309091 2.327273 6.981818 0 11.636364-2.327273 18.618182-4.654546l60.509091-34.909091c16.290909-9.309091 23.272727-30.254545 13.963636-48.872727l-27.927272-48.872727c18.618182-20.945455 34.909091-46.545455 44.218181-74.472727h55.854546c18.618182 0 34.909091-16.290909 34.909091-34.909091v-69.818182c0-23.272727-16.290909-37.236364-34.909091-37.236364z m0 104.727273h-81.454546l-2.327272 13.963636c-9.309091 30.254545-25.6 60.509091-46.545455 83.781818l-11.636363 6.981819 41.890909 72.145454-62.836364 34.909091-41.890909-72.145454-13.963636 2.327272c-32.581818 9.309091-62.836364 9.309091-95.418182 0l-13.963637-2.327272-41.890909 72.145454-58.181818-34.909091 41.890909-72.145454-9.309091-9.309091c-23.272727-23.272727-39.563636-51.2-46.545454-83.781818l-2.327273-13.963637h-83.781818v-72.145454h81.454545l2.327273-13.963637c9.309091-30.254545 25.6-60.509091 46.545455-83.781818l9.30909-9.309091-39.563636-65.163636 60.509091-34.909091 41.890909 72.145454 13.963636-2.327272c32.581818-9.309091 62.836364-9.309091 95.418182 0l13.963637 2.327272 41.890909-72.145454-18.618182-9.309091 76.8 44.218182-39.563636 72.145454 9.30909 9.309091c23.272727 23.272727 39.563636 51.2 46.545455 83.781818l2.327273 13.963637h83.781818v67.490909z" fill="" /></svg>