<svg width="20" height="16" viewBox="0 0 20 16" fill="none" xmlns="http://www.w3.org/2000/svg">
<path d="M18.916 0.47207C18.8596 0.197266 18.6179 0 18.3373 0H1.6627C1.38219 0 1.14035 0.197266 1.08402 0.47207C0.364727 3.97992 0 5.8632 0 6.06953C0 6.91324 0.425039 7.65926 1.07195 8.10562V14.9798C1.07195 15.3061 1.33645 15.5705 1.66266 15.5705H4.23531H8.71367H18.3373C18.6636 15.5705 18.928 15.306 18.928 14.9798V8.10566C19.575 7.6593 20 6.91324 20 6.06953C20 5.8632 19.6353 3.97988 18.916 0.47207ZM14.606 1.18148L15.0543 6.09164C15.0424 6.79336 14.4682 7.3607 13.7637 7.3607C13.0518 7.3607 12.4725 6.78148 12.4725 6.06953C12.4725 6.06219 12.4717 6.05504 12.4714 6.04777H12.472L12.2922 1.18148H14.606ZM8.88992 1.18148H11.11L11.2909 6.07785C11.2864 6.78597 10.7091 7.3607 10 7.3607C9.29023 7.3607 8.71254 6.785 8.70902 6.07601L8.88992 1.18148ZM5.39391 1.18152H7.70766L7.52785 6.04777L7.52855 6.04781C7.52828 6.05512 7.52746 6.06223 7.52746 6.06957C7.52746 6.78152 6.94824 7.36074 6.23629 7.36074C5.53145 7.36074 4.95707 6.79289 4.94566 6.0907L5.39391 1.18152ZM1.18164 6.09059C1.22367 5.74285 1.75691 3.0818 2.14484 1.18152H4.20754L3.76676 6.00914C3.76676 6.00918 3.76676 6.00922 3.76676 6.00926L3.76617 6.01586L3.76645 6.0159C3.76484 6.03363 3.76371 6.05144 3.76371 6.06957C3.76371 6.78152 3.18449 7.36074 2.47258 7.36074C1.76766 7.36074 1.19285 6.79289 1.18164 6.09059ZM8.12293 14.3891H4.82605V10.5795H8.12293V14.3891ZM17.7466 14.3891H9.30437V9.98875C9.30437 9.6625 9.03988 9.39804 8.71367 9.39804H4.23531C3.90906 9.39804 3.64461 9.66254 3.64461 9.98875V14.3891H2.2534V8.53191C2.32566 8.53828 2.39867 8.54215 2.47258 8.54215C3.22531 8.54215 3.90055 8.2041 4.35441 7.67172C4.80828 8.20406 5.48352 8.54215 6.23625 8.54215C6.98902 8.54215 7.66422 8.2041 8.11812 7.67172C8.57199 8.20406 9.24723 8.54215 9.99996 8.54215C10.7527 8.54215 11.4279 8.2041 11.8818 7.67172C12.3357 8.20406 13.0109 8.54215 13.7637 8.54215C14.5164 8.54215 15.1916 8.2041 15.6455 7.67172C16.0994 8.20406 16.7746 8.54215 17.5274 8.54215C17.6013 8.54215 17.6743 8.53828 17.7465 8.53191V14.3891H17.7466ZM17.5274 7.3607C16.8155 7.3607 16.2362 6.78148 16.2362 6.06953C16.2362 6.05141 16.2352 6.03355 16.2335 6.01586H16.2337L16.2333 6.01207C16.2332 6.01047 16.233 6.00883 16.2329 6.00727L15.7923 1.18148H17.8552C18.243 3.08176 18.7763 5.74285 18.8184 6.09055C18.8072 6.79285 18.2324 7.3607 17.5274 7.3607Z"/>
</svg>
