<svg class="svg-icon" style="width: 30px; height: 30px;vertical-align: middle;fill: currentColor;overflow: hidden;" viewBox="0 0 1024 1024" version="1.1" xmlns="http://www.w3.org/2000/svg"><path d="M277.333333 618.666667h42.666667c8.533333 0 14.933333-4.266667 19.2-12.8l44.8-89.6 44.8 89.6c6.4 14.933333 29.866667 14.933333 38.4 0L576 388.266667l108.8 217.6c4.266667 6.4 10.666667 12.8 19.2 12.8h42.666667c12.8 0 21.333333-8.533333 21.333333-21.333334s-8.533333-21.333333-21.333333-21.333333h-29.866667l-121.6-243.2c-6.4-14.933333-29.866667-14.933333-38.4 0L448 550.4l-44.8-89.6c-6.4-14.933333-29.866667-14.933333-38.4 0L307.2 576H277.333333c-12.8 0-21.333333 8.533333-21.333333 21.333333s8.533333 21.333333 21.333333 21.333334z"  /><path d="M874.666667 192H149.333333c-12.8 0-21.333333 8.533333-21.333333 21.333333v533.333334c0 12.8 8.533333 21.333333 21.333333 21.333333h341.333334v64H277.333333c-10.666667 0-21.333333 10.666667-21.333333 21.333333s10.666667 21.333333 21.333333 21.333334h469.333334c10.666667 0 21.333333-10.666667 21.333333-21.333334s-10.666667-21.333333-21.333333-21.333333H533.333333v-64h341.333334c12.8 0 21.333333-8.533333 21.333333-21.333333V213.333333c0-12.8-8.533333-21.333333-21.333333-21.333333z m-21.333334 533.333333H170.666667V234.666667h682.666666v490.666666z"  /></svg>