<svg class="svg-icon" style="width: 30px; height: 30px;vertical-align: middle;fill: currentColor;overflow: hidden;" viewBox="0 0 1024 1024" version="1.1" xmlns="http://www.w3.org/2000/svg"><path d="M809.890909 672.581818c-2.327273-2.327273-4.654545-2.327273-9.309091-2.327273H379.345455l-11.636364-72.145454h407.272727c20.945455 0 37.236364-13.963636 41.890909-34.909091l32.581818-195.490909c2.327273-11.636364-2.327273-25.6-9.30909-34.909091-6.981818-9.309091-18.618182-13.963636-32.581819-13.963636H321.163636l-16.290909-93.090909H169.890909c-9.309091 0-18.618182 6.981818-18.618182 18.618181s6.981818 18.618182 18.618182 18.618182h104.727273l69.818182 414.254546c-25.6 6.981818-44.218182 30.254545-44.218182 58.181818 0 34.909091 27.927273 62.836364 62.836363 62.836363 34.909091 0 62.836364-27.927273 62.836364-62.836363 0-11.636364-2.327273-20.945455-6.981818-30.254546h337.454545c-4.654545 9.309091-6.981818 18.618182-6.981818 30.254546 0 34.909091 27.927273 62.836364 62.836364 62.836363s62.836364-27.927273 62.836363-62.836363c-4.654545-34.909091-30.254545-60.509091-65.163636-62.836364z m-2.327273-318.836363c2.327273 0 4.654545 2.327273 4.654546 2.327272s2.327273 2.327273 2.327273 6.981818L781.963636 558.545455c0 4.654545-4.654545 6.981818-6.981818 6.981818H360.727273l-34.909091-209.454546h481.745454zM363.054545 763.345455c-13.963636 0-27.927273-11.636364-27.927272-27.927273s11.636364-27.927273 27.927272-27.927273c13.963636 0 27.927273 11.636364 27.927273 27.927273s-13.963636 27.927273-27.927273 27.927273z m444.509091 0c-13.963636 0-27.927273-11.636364-27.927272-27.927273s11.636364-27.927273 27.927272-27.927273 27.927273 11.636364 27.927273 27.927273-11.636364 27.927273-27.927273 27.927273z" fill="" /></svg>