<svg class="svg-icon" style="width: 30px; height: 30px;vertical-align: middle;fill: currentColor;overflow: hidden;" viewBox="0 0 1024 1024" version="1.1" xmlns="http://www.w3.org/2000/svg"><path d="M793.6 523.636364L512 246.690909 230.4 523.636364c-6.981818 6.981818-6.981818 18.618182 0 25.6 6.981818 6.981818 18.618182 6.981818 25.6 0l13.963636-13.963637v225.745455c0 30.254545 25.6 55.854545 55.854546 55.854545h374.690909c30.254545 0 55.854545-25.6 55.854545-55.854545V535.272727l13.963637 13.963637c2.327273 2.327273 6.981818 4.654545 11.636363 4.654545s9.309091-2.327273 11.636364-4.654545c6.981818-6.981818 6.981818-18.618182 0-25.6zM463.127273 781.963636v-165.236363c0-2.327273 2.327273-6.981818 6.981818-6.981818h83.781818c2.327273 0 6.981818 2.327273 6.981818 6.981818v165.236363h-97.745454z m256-20.945454c0 11.636364-9.309091 20.945455-20.945455 20.945454h-104.727273v-165.236363c0-23.272727-18.618182-41.890909-41.890909-41.890909h-83.781818c-23.272727 0-41.890909 18.618182-41.890909 41.890909v165.236363h-104.727273c-11.636364 0-20.945455-9.309091-20.945454-20.945454V500.363636l207.127273-204.8 207.127272 204.8v260.654546z" fill="" /></svg>